<?xml version="1.0" encoding="UTF-8" standalone="no"?>
<!DOCTYPE svg PUBLIC "-//W3C//DTD SVG 1.1//EN" "http://www.w3.org/Graphics/SVG/1.1/DTD/svg11.dtd">
<svg width="100%" height="100%" viewBox="0 0 800 800" version="1.1" xmlns="http://www.w3.org/2000/svg" xmlns:xlink="http://www.w3.org/1999/xlink" xml:space="preserve" xmlns:serif="http://www.serif.com/" style="fill-rule:evenodd;clip-rule:evenodd;stroke-linejoin:round;stroke-miterlimit:2;">
    <ellipse cx="400" cy="398.3" rx="400.5" ry="399.72"/>
    <g transform="matrix(0.852248,0,0,0.852248,-187.88,436.098)">
        <g transform="matrix(841.667,0,0,841.667,315.127,292.46)">
            <path d="M0.44,-0.81C0.219,-0.81 0.04,-0.627 0.04,-0.4C0.04,-0.173 0.219,0.01 0.44,0.01C0.535,0.01 0.622,-0.024 0.69,-0.08L0.64,-0.143C0.585,-0.098 0.516,-0.07 0.44,-0.07C0.263,-0.07 0.12,-0.218 0.12,-0.4C0.12,-0.582 0.263,-0.73 0.44,-0.73C0.516,-0.73 0.585,-0.702 0.64,-0.657L0.69,-0.72C0.622,-0.776 0.535,-0.81 0.44,-0.81Z" style="fill:rgb(0,255,64);fill-rule:nonzero;"/>
        </g>
    </g>
    <g transform="matrix(0.557608,0,0,0.557608,2.26459,424.67)">
        <g transform="matrix(841.667,0,0,841.667,315.127,292.46)">
            <path d="M0.44,-0.81C0.219,-0.81 0.04,-0.627 0.04,-0.4C0.04,-0.173 0.219,0.01 0.44,0.01C0.535,0.01 0.622,-0.024 0.69,-0.08L0.64,-0.143C0.585,-0.098 0.516,-0.07 0.44,-0.07C0.263,-0.07 0.12,-0.218 0.12,-0.4C0.12,-0.582 0.263,-0.73 0.44,-0.73C0.516,-0.73 0.585,-0.702 0.64,-0.657L0.69,-0.72C0.622,-0.776 0.535,-0.81 0.44,-0.81Z" style="fill:rgb(0,255,64);fill-opacity:0.67;fill-rule:nonzero;"/>
        </g>
    </g>
    <g transform="matrix(0.351376,0,0,0.351376,146.948,412.907)">
        <g transform="matrix(841.667,0,0,841.667,315.127,292.46)">
            <path d="M0.44,-0.81C0.219,-0.81 0.04,-0.627 0.04,-0.4C0.04,-0.173 0.219,0.01 0.44,0.01C0.535,0.01 0.622,-0.024 0.69,-0.08L0.64,-0.143C0.585,-0.098 0.516,-0.07 0.44,-0.07C0.263,-0.07 0.12,-0.218 0.12,-0.4C0.12,-0.582 0.263,-0.73 0.44,-0.73C0.516,-0.73 0.585,-0.702 0.64,-0.657L0.69,-0.72C0.622,-0.776 0.535,-0.81 0.44,-0.81Z" style="fill:rgb(0,255,64);fill-opacity:0.6;fill-rule:nonzero;"/>
        </g>
    </g>
    <g transform="matrix(0.186416,0,0,0.186416,263.04,404.489)">
        <g transform="matrix(841.667,0,0,841.667,315.127,292.46)">
            <path d="M0.44,-0.81C0.219,-0.81 0.04,-0.627 0.04,-0.4C0.04,-0.173 0.219,0.01 0.44,0.01C0.535,0.01 0.622,-0.024 0.69,-0.08L0.64,-0.143C0.585,-0.098 0.516,-0.07 0.44,-0.07C0.263,-0.07 0.12,-0.218 0.12,-0.4C0.12,-0.582 0.263,-0.73 0.44,-0.73C0.516,-0.73 0.585,-0.702 0.64,-0.657L0.69,-0.72C0.622,-0.776 0.535,-0.81 0.44,-0.81Z" style="fill:rgb(0,255,64);fill-opacity:0.55;fill-rule:nonzero;"/>
        </g>
    </g>
    <g transform="matrix(0.852248,0,0,0.852248,-164.518,82.0728)">
        <g transform="matrix(479.167,0,0,479.167,658.835,581.879)">
            <path d="M0.195,-0.649L0.195,-0.337L0.41,-0.337C0.459,-0.337 0.483,-0.365 0.483,-0.42L0.483,-0.566C0.483,-0.622 0.459,-0.649 0.41,-0.649L0.195,-0.649ZM0.098,0.02L0.098,-0.713L0.149,-0.737L0.41,-0.737C0.524,-0.737 0.581,-0.68 0.581,-0.566L0.581,-0.42C0.581,-0.314 0.532,-0.257 0.433,-0.25L0.593,-0.021L0.507,0.02L0.502,0.02L0.314,-0.249L0.195,-0.249L0.195,-0.024L0.103,0.02L0.098,0.02Z" style="fill:rgb(245,255,0);fill-rule:nonzero;"/>
        </g>
    </g>
    <g transform="matrix(1,0,0,1,1.05432,-4.48886)">
        <ellipse cx="387.875" cy="400.527" rx="7.38" ry="7.907" style="fill:rgb(0,255,64);fill-opacity:0.43;"/>
    </g>
</svg>
